<svg xmlns="http://www.w3.org/2000/svg" xmlns:xlink="http://www.w3.org/1999/xlink" viewBox="0 0 799.99 799.99"><defs><style>.cls-1{fill:url(#Degradado_sin_nombre_5);}</style><linearGradient id="Degradado_sin_nombre_5" x1="458.14" y1="-53.17" x2="-80.09" y2="485.06" gradientTransform="translate(236.07 163.74) rotate(5)" gradientUnits="userSpaceOnUse"><stop offset="0" stop-color="#00f067"/><stop offset="1" stop-color="#009942"/></linearGradient></defs><title>Recurso 3</title><g id="Capa_2" data-name="Capa 2"><g id="Capa_1-2" data-name="Capa 1"><circle class="cls-1" cx="400" cy="400" r="399.97"/><path d="M277.55,253.4l-.33.28c-104.43,87.62-134.15,224.17-66.33,305S418.32,634,522.78,546.32C522.78,546.32,324.34,474.77,277.55,253.4Zm-6.73,121.13c8.13,44.51,33.43,89,68.29,114-32.34,8.2-69.83,3.3-83.35-22.2-13.83-26.11-7.46-64.61,15.29-92.8Z"/><path d="M558,302.62a181.94,181.94,0,0,0,66.58,52.68,1.17,1.17,0,0,1,.68,1.11A222.41,222.41,0,0,1,614.05,415a1.07,1.07,0,0,1-.9.81c-37.25,1.62-72-29.95-102.12-39.31-5.78-1.8-10.15,5.2-6.13,9.72a222,222,0,0,0,93.9,62.5,1.16,1.16,0,0,1,.67,1.61,299.49,299.49,0,0,1-59.12,80.17,1.16,1.16,0,0,1-1.21.28C526.21,526,331.18,451.23,289,245.16a1.23,1.23,0,0,1,.45-1.2,302,302,0,0,1,85.12-45.78,1.2,1.2,0,0,1,1.21.28c57.37,57.35,128.86,105,52.42-10.92a1.19,1.19,0,0,1,.8-1.84c95.31-13.36,185.4,43.67,195.18,138.43a1.19,1.19,0,0,1-1.33,1.31C607.05,323.36,548.87,275.36,558,302.62Z"/></g></g></svg>