<svg xmlns="http://www.w3.org/2000/svg" xmlns:xlink="http://www.w3.org/1999/xlink" viewBox="0 0 799.99 799.99"><defs><style>.cls-1{fill:none;}.cls-2{fill:url(#Degradado_sin_nombre_6);}.cls-3{clip-path:url(#clip-path);}.cls-4{stroke:#000;stroke-miterlimit:10;stroke-width:18.22px;}</style><linearGradient id="Degradado_sin_nombre_6" x1="706.39" y1="142.9" x2="93.6" y2="657.1" gradientUnits="userSpaceOnUse"><stop offset="0.04" stop-color="#00f067"/><stop offset="0.97" stop-color="#009942"/></linearGradient><clipPath id="clip-path"><ellipse class="cls-1" cx="397.45" cy="398.32" rx="247.37" ry="191.21" transform="translate(-165.16 407.92) rotate(-46.04)"/></clipPath></defs><title>Recurso 2</title><g id="Capa_2" data-name="Capa 2"><g id="Capa_1-2" data-name="Capa 1"><circle class="cls-2" cx="400" cy="400" r="399.97"/><g class="cls-3"><path class="cls-4" d="M497.81,566.69c-79.12-86.3-184-191.63-270.22-270.51-25.3,23.59-50.43,46-74.63,66.34-19.17,16.15-29.64,32.49-30.88,50.6s7.11,38.36,24.74,63S192,530.27,227,565.61c34.79,35,64.17,62.84,89,80.82s45.28,26.72,63.6,25.59,34.88-11.48,51.26-30.63C451.49,617.21,474.07,592.05,497.81,566.69ZM373,521.38q-5.54,5.75-10.94,11.4a21.43,21.43,0,0,1-11.9,6.73,26.73,26.73,0,0,1-14.29-1.85,68.62,68.62,0,0,1-16.7-10,190.81,190.81,0,0,1-19-17.11q-8.55-8.67-17.19-17.26a192.56,192.56,0,0,1-17-19.05,68.39,68.39,0,0,1-9.87-16.72,26.54,26.54,0,0,1-1.76-14.24,21.28,21.28,0,0,1,6.78-11.83q5.68-5.37,11.45-10.84C306.49,453.13,340.62,487.38,373,521.38Z"/><path class="cls-4" d="M519,538.42c-80.56-85-185.12-189.79-269.15-268.9,26.23-25.17,52.35-51.36,77.51-77.71,33.32,23.88,69.42,50.81,106.71,78.54,4.11,2.89,10.77,7.8,20.06,14.78l30.3,22.79q16.35,12.3,30.38,22.82l1.91-1.89q-7.85-10.1-18.63-24.36t-22-29.35Q465,260.06,455.93,247.93c-27.51-38.18-53.79-76.15-76.67-112.26,22.52-25.2,43.58-50,62.4-73.54,78.24,95,187.7,204.75,283.81,283.89-16.57,13.47-33.77,28.07-51.32,43.5-32.68-28.53-67.46-60.69-102.23-94.34q-16.83-16.26-34.52-34.1t-33.13-33.91c-10.32-10.71-18.75-19.56-25.42-26.54l-1.76,1.86q7.34,9.07,17.09,21.65t19.38,25q9.62,12.43,16.58,22.08c38.63,51.92,77.77,102.24,112,147-14,12.78-28.07,26-42.15,39.43-48-31.09-99.72-67.91-151.33-104.95q-9.34-6.92-21.69-16.11t-24.42-18.87q-12.09-9.66-20.62-16.26l-1.94,2q10.2,9.72,25.77,24.82t32.82,32.1q17.19,17,33.38,33.1c33.36,33.31,66,65.85,95.88,95.48C551.32,505.27,535,521.83,519,538.42Z"/></g></g></g></svg>